# xmcd
#
# Track frame offsets:
# 150
# 14302
# 31097
# 50972
# 71440
# 95532
# 112415
# 143790
# 161635
# 186330
# 207280
# 222300
# 242155
# 262887
# 288825
# 307275
#
# Disc length: 4403 seconds
#
#
# Revision: 2
# Processed by: cddbd v1.5.2PL0 Copyright (c) Steve Scherf et al.
# Submitted via: FreeRIP 2.951 
#
DISCID=f7113110
DTITLE=Mega Hits - Groove - Mega Hits - Groove
DYEAR=1900
DGENRE=Rock
TTITLE0=Ace Of Base/The Sign/Ace Of Base
TTITLE1=Big Mountain/Sweet Sensual Love/Big Mountain
TTITLE2=Lisa Stansfield/This Is The Right Time/Lisa Stansfield
TTITLE3=Caron Wheeler/Livin' In The Light(The Remix)/Caron Wheeler
TTITLE4=Black Box/Everybody Everybody/Black Box
TTITLE5=Take That/It Only Takes A Minute/Take That
TTITLE6=Kylie Minogue/Where Is The Feeling/Kylie Minogue
TTITLE7=Real McCoy/Another Night/Real McCoy
TTITLE8=M People/Moving On Up/M People
TTITLE9=Jade/Don't Walk Away/Jade
TTITLE10=Aaliyah/The Thing I Like/Aaliyah
TTITLE11=TLC/Creep/Tlc
TTITLE12=SWV/I'm So Into You/Swv
TTITLE13=Hi-Five/I Like The Way(The Kissing Game)/Hi-Five
TTITLE14=Color Me Badd/I Wanna Sex You Up(Single Mix)/Color Me Badd
TTITLE15=Hammer/Pumps And A Bump/Hammer
EXTD=
EXTT0=
EXTT1=
EXTT2=
EXTT3=
EXTT4=
EXTT5=
EXTT6=
EXTT7=
EXTT8=
EXTT9=
EXTT10=
EXTT11=
EXTT12=
EXTT13=
EXTT14=
EXTT15=
PLAYORDER=
